<svg width="200" height="200" viewBox="0 0 200 200" fill="none" xmlns="http://www.w3.org/2000/svg">
<g clip-path="url(#clip0_5_6)">

<rect width="20" height="64.3789" rx="10" transform="matrix(0.54682 0.83725 -0.737918 0.67489 49.5064 25)" fill="#4C9A4E"/>
<rect width="20" height="20" rx="10" transform="matrix(0.54682 0.83725 -0.737918 0.67489 75.5446 -2)" fill="black"/>
<path d="M184.917 59.0269C188.846 55.1461 194.622 55.6519 197.817 60.1566C201.012 64.6614 200.417 71.4593 196.487 75.3402L74.3717 195.945C70.4422 199.826 64.6666 199.32 61.4715 194.816C58.2764 190.311 58.8717 183.513 62.8011 179.632L184.917 59.0269Z" fill="#4C9A4E"/>
<path d="M123.143 2.67715C127.073 -1.20372 132.848 -0.697943 136.043 3.80684C139.239 8.31163 138.643 15.1095 134.714 18.9904L45.6855 106.918C41.756 110.799 35.9804 110.293 32.7853 105.788C29.5901 101.283 30.1855 94.4853 34.1149 90.6045L123.143 2.67715Z" fill="#CF453D"/>
<path d="M153.673 30.8593C157.603 26.9784 163.379 27.4842 166.574 31.989C169.769 36.4938 169.173 43.2917 165.244 47.1725L104.685 106.982C100.756 110.863 94.9804 110.357 91.7853 105.852C88.5901 101.348 89.1855 94.5498 93.1149 90.6689L153.673 30.8593Z" fill="black"/>
<path d="M64.1736 119.027C68.103 115.146 73.8786 115.652 77.0738 120.157C80.2689 124.661 79.6736 131.459 75.7441 135.34L47.926 162.814C43.9966 166.695 38.2209 166.189 35.0258 161.685C31.8307 157.18 32.426 150.382 36.3555 146.501L64.1736 119.027Z" fill="#CF453D"/>
<path d="M119.946 181.027C123.876 177.146 129.651 177.652 132.846 182.157C136.041 186.661 135.446 193.459 131.517 197.34C127.587 201.221 121.812 200.715 118.617 196.211C115.421 191.706 116.017 184.908 119.946 181.027Z" fill="#CF453D"/>
<path d="M178.149 115.027C182.078 111.146 187.854 111.652 191.049 116.157C194.244 120.661 193.649 127.459 189.719 131.34L167.685 153.102C163.756 156.982 157.98 156.477 154.785 151.972C151.59 147.467 152.185 140.669 156.115 136.788L178.149 115.027Z" fill="black"/>
<rect width="20" height="20" rx="10" transform="matrix(0.54682 0.83725 -0.737918 0.67489 10.3309 118)" fill="#4C9A4E"/>
</g>
<defs>
<clipPath id="clip0_5_6">
<rect width="200" height="200" fill="white"/>
</clipPath>
</defs>
</svg>
